<svg width="24" height="24" viewBox="0 0 24 24" fill="none" xmlns="http://www.w3.org/2000/svg">
<g clip-path="url(#clip0_545_1502)">
<path d="M23.5875 7.2C23.55 6 23.325 5.1375 23.0625 4.35C22.8 3.5625 22.3875 2.925 21.75 2.2875C21.1125 1.65 20.475 1.275 19.725 0.975C18.975 0.675 18.15 0.4875 16.875 0.45C15.5625 0.375 15.1875 0.375 12 0.375C8.8125 0.375 8.475 0.375 7.2 0.4125C5.925 0.45 5.1375 0.675 4.35 0.9375C3.5625 1.2 2.925 1.65 2.2875 2.2875C1.65 2.925 1.2375 3.5625 0.975 4.35C0.675 5.1 0.4875 5.925 0.45 7.2C0.4125 8.475 0.375 8.8125 0.375 12C0.375 15.1875 0.375 15.525 0.4125 16.8C0.45 18.075 0.675 18.8625 0.9375 19.65C1.2 20.4375 1.6125 21.075 2.25 21.7125C2.8875 22.35 3.5625 22.7625 4.3125 23.025C5.0625 23.2875 5.8875 23.5125 7.1625 23.55C8.4375 23.625 8.775 23.625 11.9625 23.625C15.15 23.625 15.4875 23.625 16.7625 23.5875C18.0375 23.55 18.825 23.325 19.6125 23.0625C20.4 22.8 21.0375 22.3875 21.675 21.75C22.3125 21.1125 22.725 20.4375 22.9875 19.6875C23.25 18.9375 23.475 18.1125 23.5125 16.8375C23.55 15.6375 23.55 15.2625 23.55 12.075C23.55 8.8875 23.625 8.475 23.5875 7.2ZM21.4875 16.6875C21.45 17.8125 21.225 18.4125 21.075 18.8625C20.85 19.3875 20.5875 19.8 20.175 20.175C19.7625 20.5875 19.3875 20.8125 18.8625 21.075C18.45 21.225 17.85 21.45 16.6875 21.4875C15.4875 21.4875 15.1125 21.4875 12.0375 21.4875C8.9625 21.4875 8.55 21.4875 7.35 21.45C6.225 21.4125 5.625 21.1875 5.175 21.0375C4.65 20.8125 4.2375 20.55 3.8625 20.1375C3.45 19.725 3.225 19.35 2.9625 18.825C2.8125 18.4125 2.5875 17.8125 2.55 16.65C2.55 15.4875 2.55 15.1125 2.55 12C2.55 8.8875 2.55 8.5125 2.5875 7.3125C2.625 6.1875 2.85 5.5875 3 5.1375C3.225 4.6125 3.4875 4.2 3.8625 3.825C4.275 3.4125 4.65 3.1875 5.175 2.9625C5.5875 2.8125 6.1875 2.5875 7.35 2.55C8.55 2.5125 8.925 2.5125 12.0375 2.5125C15.15 2.5125 15.525 2.5125 16.725 2.55C17.85 2.5875 18.45 2.8125 18.9 2.9625C19.425 3.1875 19.8375 3.45 20.2125 3.825C20.625 4.2375 20.85 4.6125 21.1125 5.1375C21.2625 5.55 21.4875 6.15 21.525 7.3125C21.5625 8.5125 21.5625 8.8875 21.5625 12C21.5625 15.1125 21.525 15.4875 21.4875 16.6875Z" fill="#E5E7EB"/>
<path d="M12.0006 6.03711C8.66309 6.03711 6.03809 8.73711 6.03809 11.9996C6.03809 15.3371 8.73809 17.9621 12.0006 17.9621C15.2631 17.9621 18.0006 15.3371 18.0006 11.9996C18.0006 8.66211 15.3381 6.03711 12.0006 6.03711ZM12.0006 15.8996C9.82559 15.8996 8.10059 14.1371 8.10059 11.9996C8.10059 9.86211 9.86309 8.09961 12.0006 8.09961C14.1756 8.09961 15.9006 9.82461 15.9006 11.9996C15.9006 14.1746 14.1756 15.8996 12.0006 15.8996Z" fill="#E5E7EB"/>
<path d="M18.2625 7.1627C19.0288 7.1627 19.65 6.54147 19.65 5.7752C19.65 5.00888 19.0288 4.3877 18.2625 4.3877C17.4962 4.3877 16.875 5.00888 16.875 5.7752C16.875 6.54147 17.4962 7.1627 18.2625 7.1627Z" fill="#E5E7EB"/>
</g>
<defs>
<clipPath id="clip0_545_1502">
<rect width="24" height="24" fill="white"/>
</clipPath>
</defs>
</svg>
