<svg width="24" height="24" viewBox="0 0 24 24" fill="none" xmlns="http://www.w3.org/2000/svg">
<path d="M8.0256 21.2998C5.5131 21.2998 3.07559 20.5873 1.05059 19.1998C0.713086 18.9748 0.600586 18.5623 0.713086 18.1873C0.863086 17.8123 1.23809 17.5873 1.61309 17.6623C1.91309 17.6998 2.21309 17.7373 2.51309 17.7373C3.60059 17.7373 4.6506 17.5123 5.6256 17.0998C4.4256 16.4998 3.45059 15.4498 3.03809 14.0998C2.96309 13.8373 3.00059 13.5748 3.15059 13.3498C2.10059 12.3748 1.50059 11.0248 1.50059 9.5623V9.5248C1.50059 9.2248 1.65059 8.96231 1.91309 8.8123C1.95059 8.77481 1.98809 8.7748 2.02559 8.7373C1.68809 8.0623 1.50059 7.2748 1.50059 6.5248C1.50059 5.5873 1.72559 4.7248 2.17559 3.9748C2.32559 3.7498 2.55059 3.5998 2.85059 3.5623C3.11309 3.5248 3.41309 3.6748 3.56309 3.8623C5.3631 6.0748 7.9506 7.4998 10.7256 7.8748V7.8373C10.7256 5.0248 13.0131 2.7373 15.8256 2.7373C17.0631 2.7373 18.2256 3.1873 19.1631 4.0123C19.5756 3.8623 20.0256 3.5623 20.4756 3.2998C20.7006 3.1498 20.9256 2.9998 21.1506 2.8873C21.4131 2.7373 21.7506 2.7373 22.0506 2.9248C22.3506 3.1123 22.4631 3.4123 22.4256 3.7123C22.3881 3.9373 22.3131 4.4623 22.1631 5.0248C22.2381 5.0248 22.2756 5.0248 22.3131 5.0248C22.6506 4.9498 22.9881 5.0998 23.1756 5.3998C23.3631 5.6998 23.3631 6.0373 23.1756 6.3373C22.6506 7.1248 21.8631 7.64981 21.1506 8.1373C21.0756 8.1748 21.0006 8.2498 20.9631 8.2873C20.9631 8.3248 20.9631 8.3623 20.9631 8.3998C21.0006 14.6998 16.1256 21.2998 8.0256 21.2998ZM4.8006 19.1248C5.8131 19.4248 6.9006 19.5748 8.0256 19.5748C15.0756 19.5748 19.3131 13.8373 19.3131 8.2873C19.3131 8.1373 19.3131 7.9873 19.3131 7.8373C19.2756 7.5373 19.3881 7.23731 19.6506 7.04981C19.8381 6.89981 20.0631 6.7498 20.2506 6.5998C20.3631 6.5248 20.4756 6.4498 20.5881 6.3748C20.4006 6.2998 20.2506 6.1123 20.1756 5.9248C20.1006 5.7373 20.1006 5.5123 20.1756 5.3248C19.8381 5.4748 19.5006 5.5873 19.1631 5.6623C18.9006 5.6998 18.6006 5.6248 18.4131 5.3998C17.7381 4.6873 16.8756 4.3123 15.9381 4.3123C14.0631 4.3123 12.5256 5.8498 12.5256 7.7248C12.5256 7.9498 12.5631 8.21231 12.6006 8.5123C12.6381 8.77481 12.6006 9.0373 12.4131 9.2248C12.2256 9.4123 12.0006 9.5248 11.7381 9.5248C8.5506 9.3748 5.5506 8.0623 3.30059 5.8498C3.26309 6.0373 3.26309 6.2248 3.26309 6.4123C3.26309 7.5748 3.8256 8.62481 4.8006 9.26231C5.1006 9.48731 5.2506 9.8623 5.1381 10.2373C5.0256 10.6123 4.6881 10.8373 4.3131 10.8373C4.0506 10.8373 3.7506 10.7998 3.48809 10.7248C3.9006 11.7748 4.8381 12.5998 6.0006 12.8248C6.3756 12.8998 6.6756 13.2373 6.6756 13.6498C6.6756 14.0623 6.4131 14.3998 6.0381 14.4748C5.8131 14.5498 5.5506 14.5873 5.3631 14.6248C6.0006 15.3748 6.9006 15.8248 7.9131 15.8248C8.2881 15.8248 8.5881 16.0498 8.7006 16.3873C8.8131 16.7248 8.7006 17.0998 8.4006 17.3248C7.2381 18.2248 6.0756 18.8248 4.8006 19.1248Z" fill="#6B7280"/>
</svg>
